<svg xmlns="http://www.w3.org/2000/svg" width="639.64" height="96.453"><defs><clipPath id="a"><path d="M673.867 178.828c-26.25 3.125-56.094 7.97-83.398 15.78 27.303-7.81 57.147-12.655 83.397-15.78 8.41 14.324 15.87 29.28 22.285 44.78-6.386-15.49-13.824-30.436-22.285-44.78M544.75 208.664c-10.637 3.524-21.535 7.313-32.586 11.38 11.05-4.064 21.957-7.856 32.586-11.38m178.766 152.633v0m0 .953v0m0 .668v0"/></clipPath><linearGradient id="b" x2="1" gradientTransform="scale(703.27) rotate(-74.12 1.06 .266)" gradientUnits="userSpaceOnUse"><stop offset="0" stop-color="#fff"/><stop offset="1" stop-color="#fff"/></linearGradient><clipPath id="c"><path d="M673.867 178.828c-26.25 3.125-56.094 7.97-83.398 15.78-14.404 4.1-29.767 8.775-45.72 14.056-10.63 3.524-21.535 7.316-32.586 11.38-14.094 5.183-28.44 10.81-42.81 16.91C380.43 274.53 290.275 329.49 251.817 404.1c87.215 28.617 188.672 47.878 303.754 47.933h1.06c50.186-.027 102.96-3.707 158.272-11.86 5.536-24.866 8.52-50.66 8.614-77.198v-.06-.565-.102-.57-.383c-.036-32.64-4.446-64.305-12.598-94.266-4.05-14.893-8.977-29.382-14.766-43.42-6.414-15.5-13.875-30.458-22.285-44.782"/></clipPath><linearGradient id="d" x2="1" gradientTransform="scale(703.27) rotate(-74.12 1.06 .266)" gradientUnits="userSpaceOnUse"><stop offset="0" stop-color="#fff"/><stop offset="1" stop-color="#fff"/></linearGradient><linearGradient id="e" x2="1" gradientTransform="scale(703.27) rotate(-74.12 1.06 .266)" gradientUnits="userSpaceOnUse"><stop offset="0" stop-color="#fef7ef"/><stop offset="1" stop-color="#f47216"/></linearGradient><clipPath id="f"><path d="M361.738 0h-.51.51c52.617 0 102.637 11.172 147.715 31.406C464.375 11.172 414.355 0 361.738 0m-.66 0c-.148 0-.312 0-.46.004.155-.004.304-.004.46-.004m-.52.004h-.507.51m-.662 0c-.14 0-.27.004-.41.004.145 0 .266 0 .41-.004m-.527.004c-.15 0-.327.004-.483.004.156 0 .328-.004.484-.004m-.65.004c-.126.004-.243.004-.368.004.12 0 .246 0 .367-.004m-.536.004c-.15.004-.305.004-.454.007.16-.003.297-.003.454-.007m-.68.007c-.094.004-.18.004-.27.004.082 0 .184 0 .27-.004m-.508.008c-.14 0-.285.005-.426.005.137 0 .293-.004.426-.004m-.695.01c-.066.003-.14.003-.206.003.074 0 .136 0 .207-.004m-1.214.02c-.043.003-.086.003-.13.003.052 0 .08 0 .13-.004m154.367 31.346c-158.05 44.23-367.54 136.7-407.156 309.047.008.008.02.012.027.016 12.403-53.907 41.367-99.923 80.196-139.142 85.37-86.25 218.26-139.453 326.933-169.922"/></clipPath><linearGradient id="g" x2="1" gradientTransform="scale(703.343) rotate(-74.12 .787 .47)" gradientUnits="userSpaceOnUse"><stop offset="0" stop-color="#fff"/><stop offset="1" stop-color="#fff"/></linearGradient><clipPath id="h"><path d="M361.738 0h-.66c-.156 0-.305 0-.46.004h-.719c-.144.004-.265.004-.41.004h-.117c-.155 0-.327.004-.483.004h-.168c-.122.004-.247.004-.368.004h-.168c-.157.004-.293.004-.454.007h-.226c-.086.004-.188.004-.27.004-.082 0-.156.004-.238.004-.133 0-.29.005-.426.005-.09.004-.18.004-.27.004-.07.003-.132.003-.206.003-.336.008-.672.012-1.008.016-.05.003-.078.003-.13.003C222.49 2.5 107.42 76.215 46.387 184.375 29.18 215 16.27 248.36 8.517 283.595c27.414 18.9 58.715 38.21 93.78 56.858C141.915 168.105 351.403 75.637 509.454 31.406 464.375 11.172 414.355 0 361.738 0"/></clipPath><linearGradient id="i" x2="1" gradientTransform="scale(703.343) rotate(-74.12 .787 .47)" gradientUnits="userSpaceOnUse"><stop offset="0" stop-color="#fff"/><stop offset="1" stop-color="#fff"/></linearGradient><linearGradient id="j" x2="1" gradientTransform="scale(703.343) rotate(-74.12 .787 .47)" gradientUnits="userSpaceOnUse"><stop offset="0" stop-color="#fef7ef"/><stop offset="1" stop-color="#f47216"/></linearGradient></defs><path fill="#303843" d="M545.82 56.328c2.28-4.07 4.073-8.224 5.02-12.304 1.188-5.15 1.48-11.896-3.728-17.308-4.645-4.744-13.885-6.252-21.49-6.263-10.302-.015-19.187 1.886-26.47 5.875-16.884 9.037-22.843 26.336-23.977 31.74-1.76 7.646-1.647 16.22 8.968 20.812 2.562 1.084 5.24 1.667 8.052 2.094 2.813.5 5.792.667 8.824.677 15.925.022 24.852-5.217 28.384-7.457 7.927-4.98 12.968-11.958 16.416-17.865zm-20.104-7.35c-3.197 7.152-9.812 20.038-20.75 20.027-.73 0-6.875-.01-7.74-5.333-.343-1.656.135-3.74.293-4.417 1.27-5.572 6.696-15.95 11.467-20.856 4.636-4.74 9.552-5.733 11.958-5.733 8.844.013 7.916 6.755 7.282 9.505-.51 2.232-1.46 4.57-2.51 6.807M154.604 78.13c-4.04 1.49-9.544 2.865-17.375 2.855-21.527-.032-28.32-11.188-25.097-26.063 3.66-16.97 20.133-35.164 47.234-35.133 3.717.01 7.27.343 10.72 1.106 4.32.826 6.38 1.956 8.913 3.375l-7.65 13.777s-4.75-4.604-12.686-4.614c-14.765-.02-23.377 13.12-24.97 20.427-1.897 8.823 2.806 13.73 12.1 13.75 7.14.01 12.903-2.677 16.406-4.407 0 0-6.523 12.677-7.596 14.927M202.688 80.005l-42.74-.01L167.94 62.9l6.352-13.632c5.765-12.976 7.25-16.442 12.145-28.247l41.175.01-6.28 12.298-20.837.01-4.834 10.55h20.42l-6.06 11.67-19.4-.032-1.9 4.084-3.376 7.302 24.257-.01-6.912 13.103M251.984 80.005l6.732-13.104-23.227.012 21.534-45.89h-20.7l-26.32 58.994 41.98-.01M316.516 62.547c.927 1.25 2.15 2.49 3.755 3.583 3.533 2.24 7.7 2.76 10.227 2.76 7.344.01 10.136-3.562 10.574-5.728.615-3.073-2.073-4.573-5.885-6.823l-2.677-1.595c-4.2-2.497-10.087-6.167-8.352-14.812 1.36-6.82 5.883-11.313 7.727-12.795 6.656-5.653 14.822-7.052 21.437-7.04 9.96.01 16.323 3.17 19.344 4.738L365.79 38.41l-.01-.01c-.887-1-2.335-2.402-3.365-3.158-2.918-2.158-7.095-3-9.448-3-4.44-.013-7.792 2.235-8.355 5.058-.5 2.497 1.145 4.245 6.375 7.073l1.636.927c3.822 2.17 11.052 6.333 9.25 15.32-2.386 11.896-14.292 20.687-31.865 20.656-4.8 0-9.48-.583-13.923-1.927-2.902-.917-4.544-1.793-6.492-2.96l6.923-13.843M380.476 21.375l-6.468 12.9h15.52L368.133 80.34l19.98-.022 20.603-46.042 13.73.016 6.363-12.917h-48.334M459.02 38.125c-.127.58-.96 3.41-2.897 5.41-3.542 3.655-7.99 3.645-11.344 3.634h-1.45l4.594-9.808 1.937-4.24h1.815c3.166.01 4.77.188 5.864 1.01 1.28.834 1.79 2.42 1.48 3.993zM435.486 21.36c-5.104 13.312-6.708 17.06-13.416 31.515l-4.666 10.235-8.052 17.24 19.615-.01c4.238-10.73 5.448-13.793 9.238-21.94l3.323.085 4.75 21.854 20.865-.033-7.698-24.874c4.052-1.24 8.604-2.738 13.178-7.46 3.23-3.41 5.125-7.48 5.948-11.642 1.345-6.658-1.155-10.486-4.47-12.486-3.873-2.34-9.748-2.432-19.06-2.523l-19.553.04M607.768 21.35L593.56 53.372c-1.344-3.737-10.136-32.024-10.136-32.024l-15.615-.03c-3.625 9.058-26.062 59.07-26.062 59.07h17.708l14.5-35.257 11.23 35.133h12.79l26.23-58.943-16.438.026M301.48 80.005l-42.732-.01 7.984-17.094 6.356-13.632c5.77-12.976 7.243-16.442 12.14-28.247l41.184.01-6.28 12.298-20.84.01-4.825 10.55h20.4l-6.055 11.67-19.403-.032-1.905 4.084-3.36 7.302 24.248-.01-6.914 13.103M633.133 26.604v-1.9h1.27c.646 0 1.334.148 1.334.9 0 .948-.698 1-1.48 1zm0 .792h1.072l1.626 2.664h1.03l-1.727-2.7c.886-.118 1.572-.602 1.572-1.7 0-1.215-.708-1.74-2.156-1.74h-2.334v6.14h.917zm1.124 4.914c2.907 0 5.386-2.25 5.386-5.34 0-3.05-2.48-5.3-5.386-5.3-2.916 0-5.405 2.25-5.405 5.3 0 3.09 2.49 5.34 5.405 5.34zm-4.333-5.34c0-2.525 1.896-4.425 4.333-4.425 2.418 0 4.303 1.9 4.303 4.424 0 2.564-1.885 4.452-4.303 4.452-2.437 0-4.333-1.888-4.333-4.453"/><path fill="#f47216" d="M67.927 92.266c-6.01 2.698-12.68 4.187-19.695 4.187C21.596 96.453 0 74.87 0 48.23 0 21.585 21.596-.006 48.232-.006c7.26 0 14.14 1.604 20.317 4.482-26.49-.185-52.91 13.192-55.485 33.828C9.16 69.63 43.247 85.36 67.927 92.265"/><path fill="#f47216" d="M89.85 72.61c-3.5-.417-7.48-1.063-11.12-2.105C59.882 65.15 28.694 52.232 31.124 29.74c1.638-15.073 20.792-23.623 43.07-22.177C87.583 16.143 96.47 31.146 96.47 48.23c0 8.88-2.418 17.223-6.62 24.38"/><g clip-path="url(#a)" transform="matrix(.133 0 0 -.133 0 96.453)"><path fill="url(#b)" d="M673.867 178.828c-26.25 3.125-56.094 7.97-83.398 15.78 27.303-7.81 57.147-12.655 83.397-15.78 8.41 14.324 15.87 29.28 22.285 44.78-6.386-15.49-13.824-30.436-22.285-44.78M544.75 208.664c-10.637 3.524-21.535 7.313-32.586 11.38 11.05-4.064 21.957-7.856 32.586-11.38m178.766 152.633v0m0 .953v0m0 .668v0"/></g><g clip-path="url(#c)" transform="matrix(.133 0 0 -.133 0 96.453)"><path fill="url(#d)" d="M673.867 178.828c-26.25 3.125-56.094 7.97-83.398 15.78-14.404 4.1-29.767 8.775-45.72 14.056-10.63 3.524-21.535 7.316-32.586 11.38-14.094 5.183-28.44 10.81-42.81 16.91C380.43 274.53 290.275 329.49 251.817 404.1c87.215 28.617 188.672 47.878 303.754 47.933h1.06c50.186-.027 102.96-3.707 158.272-11.86 5.536-24.866 8.52-50.66 8.614-77.198v-.06-.565-.102-.57-.383c-.036-32.64-4.446-64.305-12.598-94.266-4.05-14.893-8.977-29.382-14.766-43.42-6.414-15.5-13.875-30.458-22.285-44.782"/><path fill="url(#e)" d="M673.867 178.828c-26.25 3.125-56.094 7.97-83.398 15.78-14.404 4.1-29.767 8.775-45.72 14.056-10.63 3.524-21.535 7.316-32.586 11.38-14.094 5.183-28.44 10.81-42.81 16.91C380.43 274.53 290.275 329.49 251.817 404.1c87.215 28.617 188.672 47.878 303.754 47.933h1.06c50.186-.027 102.96-3.707 158.272-11.86 5.536-24.866 8.52-50.66 8.614-77.198v-.06-.565-.102-.57-.383c-.036-32.64-4.446-64.305-12.598-94.266-4.05-14.893-8.977-29.382-14.766-43.42-6.414-15.5-13.875-30.458-22.285-44.782"/></g><g clip-path="url(#f)" transform="matrix(.133 0 0 -.133 0 96.453)"><path fill="url(#g)" d="M361.738 0h-.51.51c52.617 0 102.637 11.172 147.715 31.406C464.375 11.172 414.355 0 361.738 0m-.66 0c-.148 0-.312 0-.46.004.155-.004.304-.004.46-.004m-.52.004h-.507.51m-.662 0c-.14 0-.27.004-.41.004.145 0 .266 0 .41-.004m-.527.004c-.15 0-.327.004-.483.004.156 0 .328-.004.484-.004m-.65.004c-.126.004-.243.004-.368.004.12 0 .246 0 .367-.004m-.536.004c-.15.004-.305.004-.454.007.16-.003.297-.003.454-.007m-.68.007c-.094.004-.18.004-.27.004.082 0 .184 0 .27-.004m-.508.008c-.14 0-.285.005-.426.005.137 0 .293-.004.426-.004m-.695.01c-.066.003-.14.003-.206.003.074 0 .136 0 .207-.004m-1.214.02c-.043.003-.086.003-.13.003.052 0 .08 0 .13-.004m154.367 31.346c-158.05 44.23-367.54 136.7-407.156 309.047.008.008.02.012.027.016 12.403-53.907 41.367-99.923 80.196-139.142 85.37-86.25 218.26-139.453 326.933-169.922"/></g><g clip-path="url(#h)" transform="matrix(.133 0 0 -.133 0 96.453)"><path fill="url(#i)" d="M361.738 0h-.66c-.156 0-.305 0-.46.004h-.719c-.144.004-.265.004-.41.004h-.117c-.155 0-.327.004-.483.004h-.168c-.122.004-.247.004-.368.004h-.168c-.157.004-.293.004-.454.007h-.226c-.086.004-.188.004-.27.004-.082 0-.156.004-.238.004-.133 0-.29.005-.426.005-.09.004-.18.004-.27.004-.07.003-.132.003-.206.003-.336.008-.672.012-1.008.016-.05.003-.078.003-.13.003C222.49 2.5 107.42 76.215 46.387 184.375 29.18 215 16.27 248.36 8.517 283.595c27.414 18.9 58.715 38.21 93.78 56.858C141.915 168.105 351.403 75.637 509.454 31.406 464.375 11.172 414.355 0 361.738 0"/><path fill="url(#j)" d="M361.738 0h-.66c-.156 0-.305 0-.46.004h-.719c-.144.004-.265.004-.41.004h-.117c-.155 0-.327.004-.483.004h-.168c-.122.004-.247.004-.368.004h-.168c-.157.004-.293.004-.454.007h-.226c-.086.004-.188.004-.27.004-.082 0-.156.004-.238.004-.133 0-.29.005-.426.005-.09.004-.18.004-.27.004-.07.003-.132.003-.206.003-.336.008-.672.012-1.008.016-.05.003-.078.003-.13.003C222.49 2.5 107.42 76.215 46.387 184.375 29.18 215 16.27 248.36 8.517 283.595c27.414 18.9 58.715 38.21 93.78 56.858C141.915 168.105 351.403 75.637 509.454 31.406 464.375 11.172 414.355 0 361.738 0"/></g></svg>
