<?xml version="1.0" encoding="utf-8"?>
<!-- Generator: Adobe Illustrator 28.1.0, SVG Export Plug-In . SVG Version: 6.00 Build 0)  -->
<svg version="1.1" id="Layer_1" xmlns="http://www.w3.org/2000/svg" xmlns:xlink="http://www.w3.org/1999/xlink" x="0px" y="0px"
	 viewBox="0 0 25 21" style="enable-background:new 0 0 25 21;" xml:space="preserve">
<style type="text/css">
	.st0{fill:#F5842B;}
</style>
<path class="st0" d="M23.1,12.73c-0.5-0.76-2.68-3.12-5.43-4.65c-1.49-0.85-3.02-1.51-4.6-1.99c-1.42-0.42-3.31-0.54-3.83-0.57
	c0.15-0.11,0.33-0.2,0.54-0.28c0.02-0.01,0.03-0.01,0.05-0.02c0.1-0.03,0.19-0.07,0.3-0.09c0.05-0.01,0.11-0.02,0.16-0.03
	c0.58-0.12,1.3-0.13,2.14-0.01c0.41,0.06,0.83,0.14,1.26,0.25c0.11,0.03,0.43,0.08,0.34-0.13C13.93,5,13.6,4.88,13.34,4.8
	C12.13,4.4,8.6,3.66,6.83,4.21c-1,0.27-1.63,0.78-1.9,1.48C4.7,6.37,5.26,7.73,5.39,8.03L5.37,8.01C5.09,7.77,4.82,7.53,4.58,7.28
	C4.57,7.26,4.55,7.25,4.53,7.23c-0.1-0.11-0.2-0.21-0.29-0.32C4.2,6.86,4.16,6.81,4.12,6.76c-0.45-0.55-0.75-1.1-0.87-1.62
	C3.2,4.89,3.19,4.66,3.23,4.45C3.24,4.39,3.2,4.2,2.85,4.06C2.49,3.92,2.4,4.05,2.34,4.16C2.08,4.68,2.07,6.58,3.8,8.44
	c0.91,1.01,2.11,1.97,3.55,2.88c1.38,0.86,3.77,1.82,4.24,2.01l0,0c-0.33-0.03-0.68-0.08-1.05-0.15c-0.03-0.01-0.05-0.01-0.08-0.02
	c-0.16-0.03-0.32-0.06-0.48-0.1c-0.08-0.02-0.16-0.04-0.24-0.06c-0.86-0.22-1.78-0.55-2.71-0.98c-0.46-0.21-0.89-0.44-1.31-0.67
	c-0.11-0.06-0.46-0.23-0.58-0.11c-0.12,0.12,0.16,0.32,0.4,0.48c1.08,0.71,4.68,2.61,7.5,3.22c1.55,0.36,2.87,0.45,4,0.31
	c1.02-0.14,1.86-0.89,2.05-1.07c0.08,0.22,0.13,0.43,0.15,0.63c0,0.01,0,0.03,0,0.04c0.01,0.09,0.01,0.17,0,0.25
	c0,0.04-0.01,0.08-0.02,0.11c-0.07,0.41-0.31,0.75-0.74,1c-0.21,0.12-0.46,0.21-0.74,0.27c-0.07,0.02-0.24,0.11,0.04,0.32
	c0.28,0.21,0.54,0.21,0.74,0.19c0.89-0.07,3-0.78,2.98-2.26c0.04-0.79-0.33-1.69-1.05-2.69c-0.71-0.96-2.52-2.43-2.87-2.7
	c0.38,0.17,0.75,0.35,1.12,0.54c0.03,0.01,0.05,0.03,0.08,0.04c0.16,0.08,0.31,0.17,0.47,0.26c0.07,0.04,0.15,0.09,0.22,0.13
	c0.8,0.48,1.54,1.03,2.17,1.61c0.31,0.29,0.58,0.57,0.81,0.85c0.06,0.07,0.3,0.3,0.58,0.31C23.32,13.1,23.21,12.89,23.1,12.73z
	 M15.3,12.1l-4.89-1.4c-0.48-0.18-0.88-0.4-0.88-0.88L9.05,7.76C8.84,6.97,9.37,6.89,9.97,7.11l4.63,1.42c0.58,0.18,1,0.46,1,0.94
	l0.32,1.77C16.09,11.86,15.82,12.33,15.3,12.1z"/>
</svg>
